<?xml version="1.0" ?><!DOCTYPE svg  PUBLIC '-//W3C//DTD SVG 1.1//EN'  'http://www.w3.org/Graphics/SVG/1.1/DTD/svg11.dtd'><svg enable-background="new 0 0 489.597 524.424" height="524.424" id="レイヤー_1" overflow="visible" version="1.1" viewBox="0 0 489.597 524.424" width="489.597" xml:space="preserve" xmlns="http://www.w3.org/2000/svg" xmlns:xlink="http://www.w3.org/1999/xlink"><g id="ブリーフケース2"><g><path d="M165.695,103.5h136.25c19.676,0,35.625,15.95,35.625,35.625v116.25c0,19.675-15.949,35.625-35.625,35.625    h-136.25c-19.675,0-35.625-15.95-35.625-35.625v-116.25C130.07,119.45,146.02,103.5,165.695,103.5z M179.12,123.5    c-15.215,0-27.55,12.335-27.55,27.55v89.9c0,15.215,12.335,27.55,27.55,27.55h107.4c15.216,0,27.55-12.335,27.55-27.55v-89.9    c0-15.215-12.334-27.55-27.55-27.55H179.12z" opacity="0.39"/><g><g opacity="0.39"><path d="M89.02,226.5h285.601c26.758,0,48.449,21.691,48.449,48.45v158.1c0,26.758-21.691,48.45-48.449,48.45      H89.02c-26.758,0-48.45-21.692-48.45-48.45v-158.1C40.57,248.192,62.262,226.5,89.02,226.5z" id="XMLID_303_"/></g><g><defs><path d="M89.02,226.5h285.601c26.758,0,48.449,21.691,48.449,48.45v158.1c0,26.758-21.691,48.45-48.449,48.45       H89.02c-26.758,0-48.45-21.692-48.45-48.45v-158.1C40.57,248.192,62.262,226.5,89.02,226.5z" id="XMLID_617_"/></defs><clipPath id="XMLID_657_"><use xlink:href="#XMLID_617_"/></clipPath><path clip-path="url(#XMLID_657_)" d="M128.745,34      h206.149c34.893,0,63.176,28.284,63.176,63.175v246.15c0,34.891-28.283,63.175-63.176,63.175H128.745      c-34.891,0-63.175-28.284-63.175-63.175V97.175C65.57,62.284,93.854,34,128.745,34z" fill="none" stroke="#A8A8A8" stroke-linejoin="round" stroke-width="13"/></g><g><defs><path d="M89.02,226.5h285.601c26.758,0,48.449,21.691,48.449,48.45v158.1c0,26.758-21.691,48.45-48.449,48.45       H89.02c-26.758,0-48.45-21.692-48.45-48.45v-158.1C40.57,248.192,62.262,226.5,89.02,226.5z" id="XMLID_619_"/></defs><clipPath id="XMLID_658_"><use xlink:href="#XMLID_619_"/></clipPath><path clip-path="url(#XMLID_658_)" d="M192.22,389      h89.199c3.674,0,6.65,2.977,6.65,6.649v21.7c0,3.673-2.977,6.649-6.65,6.649H192.22c-3.673,0-6.65-2.977-6.65-6.649v-21.7      C185.57,391.977,188.547,389,192.22,389z" fill="#FFFFFF" stroke="#A8A8A8" stroke-linejoin="round" stroke-width="13"/></g></g></g><path d="M183.195,108.99h136.25   c19.676,0,35.625,13.543,35.625,30.247v98.703c0,16.705-15.949,30.248-35.625,30.248h-136.25   c-19.675,0-35.625-13.543-35.625-30.248v-98.703C147.57,122.533,163.52,108.99,183.195,108.99z M196.62,125.972   c-15.215,0-27.55,10.472-27.55,23.391v76.33c0,12.919,12.335,23.393,27.55,23.393h107.399c15.217,0,27.551-10.474,27.551-23.393   v-76.33c0-12.919-12.334-23.391-27.551-23.391H196.62z" fill="#FFFFFF" stroke="#000000" stroke-linejoin="round" stroke-width="18"/><g><g><path d="M106.52,201.5h285.601c26.758,0,48.449,21.691,48.449,48.45v158.1     c0,26.758-21.691,48.449-48.449,48.449H106.52c-26.758,0-48.45-21.691-48.45-48.449V249.949     C58.07,223.192,79.762,201.5,106.52,201.5z" fill="#FFFFFF" id="XMLID_305_"/></g><g><defs><path d="M106.52,201.5h285.601c26.758,0,48.449,21.691,48.449,48.45v158.1      c0,26.758-21.691,48.449-48.449,48.449H106.52c-26.758,0-48.45-21.691-48.45-48.449V249.949      C58.07,223.192,79.762,201.5,106.52,201.5z" id="XMLID_621_"/></defs><clipPath id="XMLID_659_"><use xlink:href="#XMLID_621_"/></clipPath><path clip-path="url(#XMLID_659_)" d="M146.245,9     h206.149c34.893,0,63.176,28.284,63.176,63.175v246.15c0,34.891-28.283,63.175-63.176,63.175H146.245     c-34.891,0-63.175-28.284-63.175-63.175V72.175C83.07,37.284,111.354,9,146.245,9z" fill="none" stroke="#000000" stroke-linejoin="round" stroke-width="18"/></g><g><defs><path d="M106.52,201.5h285.601c26.758,0,48.449,21.691,48.449,48.45v158.1      c0,26.758-21.691,48.449-48.449,48.449H106.52c-26.758,0-48.45-21.691-48.45-48.449V249.949      C58.07,223.192,79.762,201.5,106.52,201.5z" id="XMLID_623_"/></defs><clipPath id="XMLID_660_"><use xlink:href="#XMLID_623_"/></clipPath><path clip-path="url(#XMLID_660_)" d="M209.72,364     h89.199c3.674,0,6.65,2.977,6.65,6.649v21.7c0,3.673-2.977,6.65-6.65,6.65H209.72c-3.673,0-6.65-2.978-6.65-6.65v-21.7     C203.07,366.977,206.047,364,209.72,364z" fill="#A8A8A8" stroke="#000000" stroke-linejoin="round" stroke-width="18"/></g><g><path d="M106.52,201.5h285.601     c26.758,0,48.449,21.691,48.449,48.45v158.1c0,26.758-21.691,48.449-48.449,48.449H106.52c-26.758,0-48.45-21.691-48.45-48.449     V249.949C58.07,223.192,79.762,201.5,106.52,201.5z" fill="none" id="XMLID_106_" stroke="#000000" stroke-linejoin="round" stroke-width="18"/></g></g></g></svg>