<?xml version="1.0" ?><svg id="Layer_1" style="enable-background:new 0 0 512 512;" version="1.1" viewBox="0 0 512 512" xml:space="preserve" xmlns="http://www.w3.org/2000/svg" xmlns:xlink="http://www.w3.org/1999/xlink"><style type="text/css">
	.st0{fill:#2B79C2;}
	.st1{fill:#3B4652;}
	.st2{fill:#333333;}
</style><g><path class="st1" d="M416,323.1c-12.4,0-23.9,4.1-33.1,11c0.7-3.6,1.1-7.3,1.1-11c0-30.5-24.7-55.2-55.2-55.2   c-5.4,0-10.6,0.8-15.5,2.2c-22.9,6.7-39.6,27.9-39.6,52.9v8.1h-34.1c-2.6,0-4.7,2.1-4.7,4.7v14.1H46.7c-3.3,0-5.9,2.6-5.9,5.9v76.8   c0,3.3,2.6,5.9,5.9,5.9h23.9c3.3,0,5.9-2.6,5.9-5.9v-20.4c0-3.3,2.6-5.9,5.9-5.9h15.9c3.3,0,5.9,2.6,5.9,5.9V449   c0,3.3,2.6,5.9,5.9,5.9h23.9c3.3,0,5.9-2.6,5.9-5.9v-36.8c0-3.3,2.6-5.9,5.9-5.9h89.1v11.8c0,3.9,3.1,7,7,7h31.8v8.2   c0,30.5,24.7,55.2,55.2,55.2c30.5,0,55.2-24.7,55.2-55.2c0-3.8-0.4-7.5-1.1-11c9.2,6.9,20.7,11,33.1,11c30.5,0,55.2-24.7,55.2-55.2   S446.5,323.1,416,323.1z M330.4,460.5c-12.6,0-22.9-10.2-22.9-22.9c0-12.6,10.2-22.9,22.9-22.9c12.6,0,22.9,10.2,22.9,22.9   C353.3,450.2,343.1,460.5,330.4,460.5z M330.4,341c-6.8,0-12.9-3-17.1-7.7c-3.6-4-5.7-9.3-5.7-15.2c0-5.8,2.2-11.1,5.7-15.1   c4.2-4.7,10.3-7.7,17.1-7.7c12.6,0,22.9,10.2,22.9,22.9C353.3,330.8,343.1,341,330.4,341z M416,401.1c-12.6,0-22.9-10.2-22.9-22.9   c0-12.6,10.2-22.9,22.9-22.9c12.6,0,22.8,10.2,22.8,22.9C438.9,390.9,428.6,401.1,416,401.1z"/><path class="st0" d="M177.9,328.8V319v-16.7c-16.1-3.4-28.6-16.9-30.3-33.6c-0.1-1.3-0.2-2.7-0.2-4.1c0-21.3,17.3-38.5,38.5-38.5   c21.3,0,38.5,17.2,38.5,38.5c0,1.4-0.1,2.7-0.2,4.1c-1.8,16.7-14.2,30.2-30.3,33.6V319v9.8v5.2h25v-18.8h39.3   c3.2-28.1,23.1-52.4,50.7-60.4c1.5-0.4,3-0.8,4.5-1.2v-57.8c0-15.5-12.5-28-28-28h-7.5V70c0-25.7-20.9-46.5-46.5-46.5h-90.9   c-25.7,0-46.5,20.9-46.5,46.5v97.8h-7.5c-15.5,0-28,12.5-28,28v138.3h119.5V328.8z M109.9,70c0-16.8,13.7-30.5,30.5-30.5h90.9   c16.8,0,30.5,13.7,30.5,30.5v97.8h-152V70z"/></g></svg>