<?xml version="1.0" ?><svg id="Layer_1" style="enable-background:new 0 0 512 512;" version="1.1" viewBox="0 0 512 512" xml:space="preserve" xmlns="http://www.w3.org/2000/svg" xmlns:xlink="http://www.w3.org/1999/xlink"><style type="text/css">
	.st0{fill:#2B79C2;}
	.st1{fill:#3B4652;}
	.st2{fill:#333333;}
</style><g><path class="st0" d="M126.8,149.1h-11.5v-30c0-43.6,35.5-79.1,79.1-79.1h84.5c43.6,0,79.1,35.5,79.1,79.1v30h-11.5v38.2h39v-38.2   h-11.5v-30c0-52.4-42.6-95.1-95.1-95.1h-84.5c-52.4,0-95.1,42.6-95.1,95.1v30H87.8v38.2h39V149.1z"/><path class="st0" d="M171.2,347c4.4,0,8-3.6,8-8v-6.9h6.9c4.4,0,8-3.6,8-8s-3.6-8-8-8h-6.9v-6.9c0-4.4-3.6-8-8-8s-8,3.6-8,8v6.9   h-6.9c-4.4,0-8,3.6-8,8s3.6,8,8,8h6.9v6.9C163.2,343.5,166.8,347,171.2,347z"/><path class="st0" d="M236.6,347c4.4,0,8-3.6,8-8v-6.9h6.9c4.4,0,8-3.6,8-8s-3.6-8-8-8h-6.9v-6.9c0-4.4-3.6-8-8-8s-8,3.6-8,8v6.9   h-6.9c-4.4,0-8,3.6-8,8s3.6,8,8,8h6.9v6.9C228.6,343.5,232.2,347,236.6,347z"/><path class="st1" d="M286.9,381.6c-0.1-0.6-0.1-1.1-0.2-1.7H110.3c-6.4,0-11.7-5.2-11.7-11.6V280c0-6.4,5.2-11.6,11.7-11.6h252.5   c6.4,0,11.7,5.2,11.7,11.6V323h35.8v-95.9c0-13.1-10.7-23.8-23.8-23.8H86.7c-13.2,0-23.8,10.7-23.8,23.8v201.3   c0,13.1,10.6,23.8,23.8,23.8h224.7c-8.1-12.5-14.4-26.3-18.7-41.1C289.9,401.5,288,391.6,286.9,381.6z"/><path class="st0" d="M302,347c4.4,0,8-3.6,8-8v-6.9h6.9c4.4,0,8-3.6,8-8c0-0.4,0-0.7-0.1-1.1c-0.5-3.9-3.9-6.9-7.9-6.9H310v-6.9   c0-4.4-3.6-8-8-8s-8,3.6-8,8v6.9h-6.9c-4.4,0-8,3.6-8,8c0,4.4,3.6,8,8,8h6.9v6.9C294,343.5,297.6,347,302,347z"/><path class="st0" d="M446.9,369.3c-15.2,0-27.6-12.4-27.6-27.6c0-0.9,0-1.8,0.1-2.7h-86.3c0.1,0.9,0.1,1.8,0.1,2.7   c0,3.8-0.8,7.5-2.2,10.8c-4.2,9.9-14,16.8-25.4,16.8c-1.2,0-2.4-0.1-3.5-0.2c0.1,3.7,0.4,7.3,0.8,10.8c1,9.2,2.8,18.1,5.3,26.7   c4.2,14.2,10.4,27.4,18.2,38.9c1.5,2.3,3.1,4.5,4.8,6.6c12.1,15.7,27.3,28.1,44.5,35.8c41.6-18.5,71.5-64.4,73.5-118.7   C448.4,369.3,447.6,369.3,446.9,369.3z"/></g></svg>