<?xml version="1.0" ?><svg id="Layer_1" style="enable-background:new 0 0 512 512;" version="1.1" viewBox="0 0 512 512" xml:space="preserve" xmlns="http://www.w3.org/2000/svg" xmlns:xlink="http://www.w3.org/1999/xlink"><style type="text/css">
	.st0{fill:#3B4652;}
	.st1{fill:#2B79C2;}
</style><g><path class="st0" d="M215.3,358.6c5.8-1.5,11.7-2.2,17.6-2.2c3.1,0,6.1,0.2,9.2,0.6L158.2,26.5L32.3,58.5l13,51.1l74.8-19   l70.9,279.3C198.2,364.7,206.5,360.8,215.3,358.6z"/><path class="st0" d="M479.7,393l-13.2-52l-176,44.6c5.4,7.4,9.4,15.8,11.6,24.7c2.3,8.9,2.8,18.2,1.5,27.3L479.7,393z"/><path class="st0" d="M328.6,256.3l-49,12.4l-12.4-49h0l-42.6,10.8l33,130.2c8.2,3,15.7,7.5,22.3,13.2l130.1-33L372.3,193   l-56.2,14.3L328.6,256.3z"/><polygon class="st1" points="250.2,209.6 265.3,205.7 325.3,190.5 368.9,179.5 331.3,31.2 275.1,45.5 287.5,94.5 238.5,107    226,57.9 183.4,68.8 221,217  "/><path class="st1" d="M275.6,389.4c-7.9-8.7-18.3-14.9-29.8-17.6c-8.7-2-17.9-2-27.1,0.3c-9.2,2.3-17.4,6.8-24,12.7   c-15.6,13.8-23.1,35.7-17.6,57.3c7.8,30.8,39.1,49.5,69.9,41.6c21.4-5.4,37-22.2,41.8-42.3c2.1-8.8,2.2-18.2-0.2-27.6   C286.3,404.4,281.7,396.1,275.6,389.4z M259.7,428.9c0,0.2,0,0.4,0,0.6c-0.1,0.9-0.2,1.8-0.3,2.6c0,0.2-0.1,0.5-0.1,0.7   c-0.1,0.8-0.3,1.6-0.5,2.3c-0.1,0.5-0.3,1-0.5,1.6c-0.1,0.3-0.2,0.6-0.3,0.9c-0.1,0.1-0.1,0.3-0.2,0.4c-0.2,0.5-0.5,1.1-0.7,1.6   c-0.1,0.1-0.1,0.3-0.2,0.4c-0.2,0.4-0.4,0.8-0.7,1.2c-0.1,0.2-0.3,0.5-0.4,0.7c-0.2,0.3-0.4,0.7-0.6,1c-0.1,0.2-0.2,0.3-0.3,0.5   c-0.3,0.5-0.7,0.9-1,1.4c-0.1,0.1-0.2,0.2-0.3,0.3c-0.5,0.6-1,1.2-1.6,1.7c-0.1,0.1-0.1,0.1-0.2,0.2c-0.2,0.2-0.5,0.5-0.7,0.7   c-0.4,0.4-0.8,0.7-1.2,1.1c-0.2,0.2-0.5,0.4-0.7,0.5c0,0,0,0,0,0c-0.2,0.2-0.5,0.3-0.7,0.5s-0.5,0.3-0.7,0.5   c-0.3,0.2-0.5,0.3-0.8,0.5c-0.2,0.1-0.5,0.3-0.7,0.4c0,0,0,0,0,0c-0.2,0.1-0.4,0.2-0.6,0.3c-0.9,0.5-1.8,0.9-2.8,1.3   c-0.3,0.1-0.7,0.3-1,0.4c0,0,0,0,0,0c-0.3,0.1-0.6,0.2-0.9,0.3c-0.4,0.1-0.9,0.3-1.3,0.4c-2.8,0.7-5.7,1-8.5,0.8   c-0.3,0-0.6,0-0.9-0.1c-0.5,0-0.9-0.1-1.4-0.2c-0.2,0-0.4-0.1-0.6-0.1c-1-0.2-2-0.4-2.9-0.7c-0.3-0.1-0.5-0.2-0.8-0.2   c-0.2-0.1-0.4-0.1-0.6-0.2c-0.3-0.1-0.5-0.2-0.8-0.3c-0.3-0.1-0.5-0.2-0.8-0.3c-0.3-0.2-0.7-0.3-1-0.5c-0.2-0.1-0.5-0.2-0.7-0.3   c-0.3-0.1-0.5-0.3-0.8-0.4c-0.6-0.3-1.2-0.7-1.7-1.1c-0.4-0.3-0.8-0.5-1.2-0.9c-0.3-0.2-0.6-0.4-0.9-0.7c-0.5-0.4-0.9-0.7-1.3-1.1   c-0.3-0.2-0.5-0.5-0.7-0.7c-0.4-0.4-0.8-0.8-1.2-1.3c-0.4-0.5-0.8-1-1.2-1.5c-0.3-0.5-0.7-0.9-1-1.4c-0.3-0.5-0.7-1.1-1-1.6   c-0.1-0.3-0.3-0.5-0.4-0.8c-0.2-0.4-0.4-0.8-0.6-1.2c-0.3-0.7-0.6-1.4-0.9-2.2c-0.3-0.8-0.5-1.5-0.7-2.3c-0.3-1.3-0.5-2.5-0.7-3.8   c0-0.3,0-0.6-0.1-0.9c-0.9-12.7,7.4-24.6,20.1-27.9c2.6-0.7,5.2-0.9,7.7-0.8c0.2,0,0.3,0,0.5,0c0.3,0,0.7,0,1,0.1c0,0,0.1,0,0.1,0   h0c0.8,0.1,1.7,0.2,2.5,0.4c0.4,0.1,0.8,0.2,1.3,0.3c0.4,0.1,0.8,0.2,1.2,0.3c0.4,0.1,0.7,0.2,1.1,0.3c0.3,0.1,0.6,0.2,1,0.4   c0.2,0.1,0.4,0.1,0.6,0.2c0.3,0.1,0.6,0.3,1,0.4c0.4,0.2,0.8,0.4,1.2,0.6c0.7,0.3,1.3,0.7,1.9,1.1c0.3,0.2,0.6,0.4,0.9,0.6   c0.3,0.2,0.6,0.4,0.8,0.6c0.4,0.3,0.7,0.5,1,0.8c0.3,0.2,0.5,0.4,0.7,0.6c0.3,0.2,0.5,0.4,0.7,0.7c0.1,0,0.1,0.1,0.1,0.1   c0.2,0.2,0.5,0.5,0.7,0.7c1,1,1.8,2.1,2.6,3.2c0.1,0.2,0.3,0.4,0.4,0.6c0.3,0.4,0.5,0.8,0.8,1.2c0.1,0.2,0.2,0.4,0.3,0.6   c0.3,0.6,0.6,1.2,0.9,1.8l2.3,9.2C259.7,427,259.7,428,259.7,428.9z"/></g></svg>