<?xml version="1.0" ?><svg height="200" id="Color" viewBox="0 0 200 200" width="200" xmlns="http://www.w3.org/2000/svg"><defs><style>.cls-1{fill:#ffb612;}.cls-2{fill:#593a25;}</style></defs><title/><path class="cls-1" d="M100,101.39a42,42,0,0,1-30.06-12.6,42.75,42.75,0,0,1-12.34-30.2c0-13.43,2.6-23.63,7.93-31.17,7-9.9,18.63-14.92,34.47-14.92,16.17,0,27.89,5,34.8,15,5.18,7.44,7.6,17.34,7.6,31.11a42.75,42.75,0,0,1-12.34,30.2A41.88,41.88,0,0,1,100,101.39Zm0-77.91c-12.25,0-20.59,3.36-25.51,10.29-4,5.6-5.9,13.71-5.9,24.8a31.41,31.41,0,1,0,62.82,0c0-11.42-1.8-19.33-5.63-24.84C121,26.84,112.53,23.48,100,23.48Z"/><path class="cls-2" d="M141,187.5H59a38.3,38.3,0,0,1,0-76.6h82a38.3,38.3,0,0,1,0,76.6ZM59,121.89a27.31,27.31,0,0,0,0,54.61h82a27.31,27.31,0,0,0,0-54.61Z"/></svg>