<?xml version="1.0" ?><svg xmlns="http://www.w3.org/2000/svg" xmlns:xlink="http://www.w3.org/1999/xlink" version="1.1" viewBox="0 0 512 512" style="enable-background:new 0 0 512 512;" xml:space="preserve"><g id="_x30_1_x2C__Product_Research_x2C__Market_x2C__Trends_x2C__Insights_x2C__Development_x2C__Analysis"><g><g><polygon style="fill:#9DCAFC;" points="111.601,421.62 91.5,441.73 72.19,439.815 70.28,420.51 90.38,400.399 110.991,401.009         "/><polygon style="fill:#9DCAFC;" points="506,113.232 312.995,243.672 119.991,113.232 192.371,73.018 232.143,70.501      240.623,46.21 312.995,6    "/><polygon style="fill:#9DCAFC;" points="119.991,311.038 119.991,113.232 312.995,220.455 332.496,318.507 312.995,418.82      201.326,383.694    "/><polygon style="fill:#9DCAFC;" points="506,113.232 506,311.597 424.665,378.342 312.995,418.82 312.995,418.41 312.995,220.455         "/><polygon style="fill:#FFFFFF;" points="312.995,418.82 329.18,432.236 312.995,456.35 235.154,413.109 235.104,413.029      119.991,349.007 119.991,311.038    "/><polygon style="fill:#FFFFFF;" points="506,311.597 506,349.128 312.995,456.35 312.995,418.82    "/><polygon style="fill:#FFFFFF;" points="433.628,153.443 433.628,287.476 411.908,282.576 385.377,314.277 385.377,180.244      192.373,73.021 240.624,46.211 240.624,46.221    "/><path style="fill:#FFFFFF;" d="M285.995,325.207c0.42,54.566-43.656,99.733-97.982,100.782c-15.22,0.3-29.681-2.8-42.681-8.6     c-9.16-4.08-19.89-2.04-26.981,5.05l-2.97,2.96c-7.322-7.322-21.602-21.602-28.781-28.781l2.96-2.97     c7.09-7.09,9.13-17.82,5.05-26.981c-5.8-13-8.9-27.461-8.6-42.681c1.069-54.438,46.327-98.411,100.782-97.982     C241.384,226.435,285.565,270.616,285.995,325.207z"/><path style="fill:#9DCAFC;" d="M185.992,251.006c41.421,0,75.002,33.581,75.002,75.002s-33.581,75.002-75.002,75.002     s-75.002-33.581-75.002-75.002S144.571,251.006,185.992,251.006z"/><polygon style="fill:#FFFFFF;" points="232.143,307.157 176.122,363.188 142.031,329.097 156.172,314.957 176.122,334.898      218.003,293.017    "/><polygon style="fill:#FFFFFF;" points="98.56,448.79 81.17,466.191 52.989,456.35 45.819,430.84 63.21,413.439 70.28,420.51      91.5,441.73    "/><path style="fill:#9DCAFC;" d="M81.17,466.191l-33.981,33.971c-7.79,7.8-20.44,7.8-28.241,0l-7.11-7.11     c-7.8-7.8-7.8-20.451,0-28.241l33.981-33.971L81.17,466.191z"/><path style="fill:#4269A7;" d="M508.429,108.862L315.424,1.629c-1.512-0.839-3.348-0.839-4.858,0     c-3.245,1.803-192.243,106.807-193.04,107.258c-1.626,0.923-2.536,2.647-2.536,4.346v135.626     c-20.371,18.757-33.396,45.415-33.98,75.034c-0.308,15.603,2.731,30.678,9.03,44.809c3.208,7.198,1.596,15.803-4.013,21.413     l-2.967,2.967c-1.953,1.952-1.953,5.118,0,7.07l0.249,0.249l-13.029,13.037l-3.536-3.536c-1.951-1.953-5.119-1.953-7.07,0     L8.302,461.271c-9.736,9.735-9.736,25.576,0,35.311l7.115,7.115v0.001c9.736,9.734,25.576,9.736,35.311-0.001l33.951-33.952     c0.008-0.008,0.017-0.013,0.025-0.02s0.013-0.017,0.02-0.025l17.375-17.375c1.953-1.952,1.953-5.118,0-7.07l-3.528-3.528     l13.03-13.036l0.247,0.247c1.951,1.953,5.119,1.953,7.07,0l2.967-2.967c5.61-5.609,14.215-7.22,21.411-4.013     c14.119,6.294,29.147,9.329,44.81,9.03c16.916-0.333,32.867-4.725,46.932-12.224l75.528,41.956c1.542,0.857,3.408,0.805,4.856,0     l193.004-107.222c1.588-0.882,2.572-2.556,2.572-4.371V113.232C511,111.5,510.036,109.748,508.429,108.862z M192.366,78.741     l182.711,101.506l-62.082,34.489l-182.71-101.503L192.366,78.741z M240.616,51.934l188.007,104.449v124.836l-15.617-3.521     c-1.827-0.408-3.732,0.232-4.934,1.669l-17.701,21.148V180.247c0-1.859-1.057-3.622-2.743-4.465L202.661,73.021L240.616,51.934z      M317.995,223.397l62.376-34.653v125.533c0,4.543,5.788,6.849,8.834,3.209l24.577-29.363l18.741,4.226     c3.147,0.705,6.1-1.729,6.1-4.878V156.388L501,121.731v186.924L317.995,410.324V223.397z M312.995,11.72l182.709,101.513     l-62.077,34.491L250.91,46.214L312.995,11.72z M124.991,121.73l183.004,101.667v186.514l-38.016-21.121     c13.34-17.779,21.197-39.855,21.012-63.618c-0.449-57.359-46.787-103.716-104.163-104.165     c-22.572-0.16-43.994,6.887-61.838,19.705V121.73z M43.658,496.628c-5.835,5.836-15.331,5.836-21.17-0.001v0.001l-7.114-7.115     c-5.837-5.837-5.837-15.334-0.001-21.17l30.44-30.439l28.285,28.285L43.658,496.628z M81.167,459.117l-28.284-28.284     l10.327-10.326l3.523,3.523c0.005,0.005,0.008,0.011,0.013,0.016s0.011,0.008,0.016,0.013l21.186,21.186     c0.007,0.007,0.011,0.015,0.017,0.021c0.007,0.007,0.015,0.011,0.021,0.017l3.507,3.507L81.167,459.117z M91.501,434.656     l-14.149-14.149l13.029-13.037l14.15,14.15L91.501,434.656z M187.909,420.991c-14.107,0.279-27.761-2.469-40.54-8.165     c-10.754-4.795-23.491-2.512-31.977,5.514L93.66,396.608c8.062-8.523,10.288-21.267,5.514-31.978     c-5.696-12.779-8.444-26.418-8.165-40.54c1.021-51.73,43.991-93.486,95.742-93.081c51.563,0.403,93.838,42.68,94.24,94.242     C281.395,377.022,239.638,419.971,187.909,420.991z M263.492,396.627l44.503,24.725v26.5l-63.109-35.058     C251.702,408.141,257.947,402.708,263.492,396.627z M317.995,447.853v-26.089L501,320.095v26.091L317.995,447.853z"/><path style="fill:#4269A7;" d="M185.992,246.006c-44.113,0-80.002,35.889-80.002,80.002s35.889,80.002,80.002,80.002     s80.002-35.889,80.002-80.002S230.106,246.006,185.992,246.006z M185.992,396.009c-38.599,0-70.002-31.403-70.002-70.002     s31.403-70.002,70.002-70.002s70.002,31.403,70.002,70.002S224.591,396.009,185.992,396.009z"/><path style="fill:#4269A7;" d="M235.679,303.622l-14.143-14.143c-1.953-1.955-5.122-1.95-7.07,0l-38.348,38.348l-16.408-16.406     c-1.953-1.953-5.119-1.952-7.07-0.001l-14.143,14.142c-1.958,1.958-1.947,5.126,0,7.071l34.086,34.085     c1.951,1.953,5.119,1.953,7.07,0l56.026-56.026C237.632,308.74,237.632,305.574,235.679,303.622z M176.118,356.112     l-27.014-27.013l7.071-7.07l16.408,16.406c1.951,1.953,5.119,1.953,7.07,0l38.348-38.348l7.071,7.071L176.118,356.112z"/></g></g></g><g id="Layer_1"/></svg>