<?xml version="1.0" ?><svg viewBox="0 0 433.32 420.94" xmlns="http://www.w3.org/2000/svg"><defs><style>.cls-1{fill:#f78d00;}.cls-2{fill:#c66527;}.cls-3{fill:#426572;}.cls-4{fill:#fff;}.cls-5{fill:#e1d2d5;}</style></defs><title/><g data-name="Layer 2" id="Layer_2"><g data-name="Layer 1" id="Layer_1-2"><path class="cls-1" d="M25.18,97.76h384a0,0,0,0,1,0,0v284A33.15,33.15,0,0,1,376,414.94H58.33a33.15,33.15,0,0,1-33.15-33.15v-284A0,0,0,0,1,25.18,97.76Z"/><rect class="cls-2" height="28.32" width="384.02" x="27.45" y="126.08"/><path class="cls-3" d="M378.31,420.94H60.6a39.19,39.19,0,0,1-39.15-39.15v-290h396v290A39.19,39.19,0,0,1,378.31,420.94ZM33.45,103.76v278A27.18,27.18,0,0,0,60.6,408.94H378.31a27.18,27.18,0,0,0,27.15-27.15v-278Z"/><path class="cls-1" d="M49.82,6H383.5a43.82,43.82,0,0,1,43.82,43.82V106.4a24.21,24.21,0,0,1-24.21,24.21H30.21A24.21,24.21,0,0,1,6,106.4V49.82A43.82,43.82,0,0,1,49.82,6Z"/><path class="cls-2" d="M427.25,82.79V98.65c0,15.15-11.24,27.42-25.1,27.42H25.28C11.42,126.08.18,113.8.18,98.65V82.79c0,15.15,11.24,27.42,25.1,27.42H402.15C416,110.22,427.25,97.94,427.25,82.79Z"/><path class="cls-3" d="M403.11,136.61H30.21A30.24,30.24,0,0,1,0,106.4V49.82A49.88,49.88,0,0,1,49.82,0H383.5a49.88,49.88,0,0,1,49.82,49.82V106.4A30.24,30.24,0,0,1,403.11,136.61ZM49.82,12A37.87,37.87,0,0,0,12,49.82V106.4a18.23,18.23,0,0,0,18.21,18.21h372.9a18.23,18.23,0,0,0,18.21-18.21V49.82A37.87,37.87,0,0,0,383.5,12Z"/><ellipse class="cls-4" cx="104.4" cy="31.16" rx="29.96" ry="3.83"/><ellipse class="cls-4" cx="45.76" cy="30.97" rx="14.98" ry="3.83"/><rect class="cls-4" height="55.51" rx="12" ry="12" width="157.14" x="136.25" y="200.84"/><path class="cls-5" d="M296.32,214.43v6.8H136.25v-6.8a13.46,13.46,0,0,1,13.25-13.59H283.07A13.46,13.46,0,0,1,296.32,214.43Z"/><path class="cls-3" d="M270.43,262.35H161.68a33.75,33.75,0,1,1,0-67.51H270.43a33.75,33.75,0,1,1,0,67.51ZM161.68,206.84a21.75,21.75,0,1,0,0,43.51H270.43a21.75,21.75,0,1,0,0-43.51Z"/><rect class="cls-3" height="12" width="31.96" x="26.28" y="344.22"/></g></g></svg>